{
	"asset":{
		"generator":"Khronos glTF Blender I/O v5.0.21",
		"version":"2.0"
	},
	"scene":0,
	"scenes":[
		{
			"name":"Scene",
			"nodes":[
				0
			]
		}
	],
	"nodes":[
		{
			"mesh":0,
			"name":"Candelabra"
		}
	],
	"materials":[
		{
			"doubleSided":true,
			"name":"candelabra1",
			"pbrMetallicRoughness":{
				"baseColorTexture":{
					"index":0
				},
				"metallicFactor":0,
				"roughnessFactor":0.5
			}
		}
	],
	"meshes":[
		{
			"name":"Cube.003",
			"primitives":[
				{
					"attributes":{
						"POSITION":0,
						"NORMAL":1,
						"TEXCOORD_0":2
					},
					"indices":3,
					"material":0
				}
			]
		}
	],
	"textures":[
		{
			"sampler":0,
			"source":0
		}
	],
	"images":[
		{
			"mimeType":"image/png",
			"name":"candelabra1",
			"uri":"../../models/candelabra1/candelabra1.png"
		}
	],
	"accessors":[
		{
			"bufferView":0,
			"componentType":5126,
			"count":809,
			"max":[
				0.08588005602359772,
				0.5364999771118164,
				0.08588005602359772
			],
			"min":[
				-0.08588005602359772,
				-1.862645149230957e-09,
				-0.08588005602359772
			],
			"type":"VEC3"
		},
		{
			"bufferView":1,
			"componentType":5126,
			"count":809,
			"type":"VEC3"
		},
		{
			"bufferView":2,
			"componentType":5126,
			"count":809,
			"type":"VEC2"
		},
		{
			"bufferView":3,
			"componentType":5123,
			"count":1200,
			"type":"SCALAR"
		}
	],
	"bufferViews":[
		{
			"buffer":0,
			"byteLength":9708,
			"byteOffset":0,
			"target":34962
		},
		{
			"buffer":0,
			"byteLength":9708,
			"byteOffset":9708,
			"target":34962
		},
		{
			"buffer":0,
			"byteLength":6472,
			"byteOffset":19416,
			"target":34962
		},
		{
			"buffer":0,
			"byteLength":2400,
			"byteOffset":25888,
			"target":34963
		}
	],
	"samplers":[
		{
			"magFilter":9728,
			"minFilter":9984
		}
	],
	"buffers":[
		{
			"byteLength":28288,
			"uri":"candelabra1-1963d7198184a393225148ebed89d12e.bin"
		}
	]
}
