{
	"asset":{
		"generator":"Khronos glTF Blender I/O v5.0.21",
		"version":"2.0"
	},
	"scene":0,
	"scenes":[
		{
			"name":"Scene",
			"nodes":[
				0,
				1
			]
		}
	],
	"nodes":[
		{
			"mesh":0,
			"name":"Base"
		},
		{
			"mesh":1,
			"name":"Top"
		}
	],
	"materials":[
		{
			"doubleSided":true,
			"name":"casket",
			"pbrMetallicRoughness":{
				"baseColorTexture":{
					"index":0
				},
				"metallicFactor":0
			}
		}
	],
	"meshes":[
		{
			"name":"Cube",
			"primitives":[
				{
					"attributes":{
						"POSITION":0,
						"NORMAL":1,
						"TEXCOORD_0":2,
						"TANGENT":3
					},
					"indices":4,
					"material":0
				}
			]
		},
		{
			"name":"Cube.001",
			"primitives":[
				{
					"attributes":{
						"POSITION":5,
						"NORMAL":6,
						"TEXCOORD_0":7
					},
					"indices":8,
					"material":0
				}
			]
		}
	],
	"textures":[
		{
			"sampler":0,
			"source":0
		}
	],
	"images":[
		{
			"mimeType":"image/jpeg",
			"name":"casket1.jpg",
			"uri":"../../models/casket1/casket1.jpg"
		}
	],
	"accessors":[
		{
			"bufferView":0,
			"componentType":5126,
			"count":92,
			"max":[
				0.4599999487400055,
				0.6000000238418579,
				1.059999942779541
			],
			"min":[
				-0.4599999487400055,
				0,
				-1.059999942779541
			],
			"type":"VEC3"
		},
		{
			"bufferView":1,
			"componentType":5126,
			"count":92,
			"type":"VEC3"
		},
		{
			"bufferView":2,
			"componentType":5126,
			"count":92,
			"type":"VEC2"
		},
		{
			"bufferView":3,
			"componentType":5126,
			"count":92,
			"type":"VEC4"
		},
		{
			"bufferView":4,
			"componentType":5123,
			"count":192,
			"type":"SCALAR"
		},
		{
			"bufferView":5,
			"componentType":5126,
			"count":162,
			"max":[
				0.3999999761581421,
				0.8100000023841858,
				1
			],
			"min":[
				-0.3999999761581421,
				0.6000000238418579,
				-1
			],
			"type":"VEC3"
		},
		{
			"bufferView":6,
			"componentType":5126,
			"count":162,
			"type":"VEC3"
		},
		{
			"bufferView":7,
			"componentType":5126,
			"count":162,
			"type":"VEC2"
		},
		{
			"bufferView":8,
			"componentType":5123,
			"count":336,
			"type":"SCALAR"
		}
	],
	"bufferViews":[
		{
			"buffer":0,
			"byteLength":1104,
			"byteOffset":0,
			"target":34962
		},
		{
			"buffer":0,
			"byteLength":1104,
			"byteOffset":1104,
			"target":34962
		},
		{
			"buffer":0,
			"byteLength":736,
			"byteOffset":2208,
			"target":34962
		},
		{
			"buffer":0,
			"byteLength":1472,
			"byteOffset":2944,
			"target":34962
		},
		{
			"buffer":0,
			"byteLength":384,
			"byteOffset":4416,
			"target":34963
		},
		{
			"buffer":0,
			"byteLength":1944,
			"byteOffset":4800,
			"target":34962
		},
		{
			"buffer":0,
			"byteLength":1944,
			"byteOffset":6744,
			"target":34962
		},
		{
			"buffer":0,
			"byteLength":1296,
			"byteOffset":8688,
			"target":34962
		},
		{
			"buffer":0,
			"byteLength":672,
			"byteOffset":9984,
			"target":34963
		}
	],
	"samplers":[
		{
			"magFilter":9728,
			"minFilter":9984
		}
	],
	"buffers":[
		{
			"byteLength":10656,
			"uri":"casket1-e68bb7096b558cdcd8aa50d6b8783ce6.bin"
		}
	]
}
