{
	"asset":{
		"generator":"Khronos glTF Blender I/O v5.0.21",
		"version":"2.0"
	},
	"scene":0,
	"scenes":[
		{
			"name":"Scene",
			"nodes":[
				0,
				1
			]
		}
	],
	"nodes":[
		{
			"mesh":0,
			"name":"Cylinder",
			"rotation":[
				0.7071068286895752,
				0,
				0,
				0.7071068286895752
			],
			"translation":[
				0,
				0.027000000700354576,
				-0.03700000047683716
			]
		},
		{
			"mesh":1,
			"name":"Base"
		}
	],
	"materials":[
		{
			"doubleSided":true,
			"name":"revolver1",
			"pbrMetallicRoughness":{
				"baseColorTexture":{
					"index":0
				},
				"metallicFactor":0,
				"roughnessFactor":0.5
			}
		}
	],
	"meshes":[
		{
			"name":"Cylinder",
			"primitives":[
				{
					"attributes":{
						"POSITION":0,
						"NORMAL":1,
						"TEXCOORD_0":2,
						"TANGENT":3
					},
					"indices":4,
					"material":0
				}
			]
		},
		{
			"name":"Cube.001",
			"primitives":[
				{
					"attributes":{
						"POSITION":5,
						"NORMAL":6,
						"TEXCOORD_0":7
					},
					"indices":8,
					"material":0
				}
			]
		}
	],
	"textures":[
		{
			"sampler":0,
			"source":0
		}
	],
	"images":[
		{
			"mimeType":"image/png",
			"name":"revolver1",
			"uri":"../../models/revolver1/revolver1.png"
		}
	],
	"accessors":[
		{
			"bufferView":0,
			"componentType":5126,
			"count":62,
			"max":[
				0.019999999552965164,
				0.020999999716877937,
				0.019999999552965164
			],
			"min":[
				-0.019999999552965164,
				-0.020999999716877937,
				-0.019999999552965164
			],
			"type":"VEC3"
		},
		{
			"bufferView":1,
			"componentType":5126,
			"count":62,
			"type":"VEC3"
		},
		{
			"bufferView":2,
			"componentType":5126,
			"count":62,
			"type":"VEC2"
		},
		{
			"bufferView":3,
			"componentType":5126,
			"count":62,
			"type":"VEC4"
		},
		{
			"bufferView":4,
			"componentType":5123,
			"count":96,
			"type":"SCALAR"
		},
		{
			"bufferView":5,
			"componentType":5126,
			"count":501,
			"max":[
				0.011999968439340591,
				0.05925624445080757,
				0.12046406418085098
			],
			"min":[
				-0.011999968439340591,
				-0.08599996566772461,
				-0.14799995720386505
			],
			"type":"VEC3"
		},
		{
			"bufferView":6,
			"componentType":5126,
			"count":501,
			"type":"VEC3"
		},
		{
			"bufferView":7,
			"componentType":5126,
			"count":501,
			"type":"VEC2"
		},
		{
			"bufferView":8,
			"componentType":5123,
			"count":912,
			"type":"SCALAR"
		}
	],
	"bufferViews":[
		{
			"buffer":0,
			"byteLength":744,
			"byteOffset":0,
			"target":34962
		},
		{
			"buffer":0,
			"byteLength":744,
			"byteOffset":744,
			"target":34962
		},
		{
			"buffer":0,
			"byteLength":496,
			"byteOffset":1488,
			"target":34962
		},
		{
			"buffer":0,
			"byteLength":992,
			"byteOffset":1984,
			"target":34962
		},
		{
			"buffer":0,
			"byteLength":192,
			"byteOffset":2976,
			"target":34963
		},
		{
			"buffer":0,
			"byteLength":6012,
			"byteOffset":3168,
			"target":34962
		},
		{
			"buffer":0,
			"byteLength":6012,
			"byteOffset":9180,
			"target":34962
		},
		{
			"buffer":0,
			"byteLength":4008,
			"byteOffset":15192,
			"target":34962
		},
		{
			"buffer":0,
			"byteLength":1824,
			"byteOffset":19200,
			"target":34963
		}
	],
	"samplers":[
		{
			"magFilter":9728,
			"minFilter":9984
		}
	],
	"buffers":[
		{
			"byteLength":21024,
			"uri":"revolver1-092cf0f11af13f1ece04703a90eedaec.bin"
		}
	]
}
